<svg xmlns="http://www.w3.org/2000/svg" viewBox="0 0 240 202" fill="#9ba3b4">
  <path d="M95.4 100.5c-6.4 1.3-6.4 9-5.2 19.3 1.3 11.6 5.2 19.3 11.6 18 6.5 0 6.5-9 5.2-19.3s-3.9-18-11.6-18Z" />
  <path d="M228.1 113.4s-3.9-18-23.2-33.5c-18-12.9-37.4-11.6-37.4-11.6s5.2-10.3 19.3-18c12.9-6.5 31-7.8 31-7.8s-11.6-14.2-34.8-23.2c-28.4-10.3-51.6-10.3-79.9-1.3-30.9 10.3-52.8 34.8-52.8 34.8s-30.9-9-36.1-1.3c-6.4 7.7 9 37.4 9 37.4s-3.9 9-2.6 25.8c1.3 18 11.6 30.9 11.6 30.9-5.2 1.3-10.3 3.9-10.3 7.7 0 3.9 7.7 7.8 16.8 7.8h3.8c9 9 21.9 20.6 41.2 21.9 24.5 1.3 40-7.7 50.3-10.3 11.6-3.9 28.3-3.9 38.7-3.9 30.9 3.9 43.8 11.6 43.8 11.6s1.3-14.2-11.6-33.5c-10.3-14.2-30.9-19.3-30.9-19.3s10.3-9 23.2-11.6c16.8-3.9 31-2.6 31-2.6ZM32.2 135.3c-2.6-5.1-3.9-10.3-5.1-25.8 0-7.7 2.5-16.7 6.4-18 5.1-1.3 5.1 7.7 7.7 15.5.6 2.1 2.6 6.4 3.9 10.3-1.3-1.3-1.3-1.3-1.3 0-3.9 0-5.1 7.7-2.6 16.7 1.3 5.2 3.9 10.3 6.5 11.6-2.6 0-5.2-1.3-9-1.3 0 0-1.3 0-1.3 1.3-1.3-2.6-3.9-6.5-5.2-10.3Zm79.9 0c-6.4 12.9-16.7 16.8-28.4 16.8-11.6 0-19.3-6.5-30.9-5.2 2.6-2.6 2.6-9 1.3-16.8-1.3-1.3-1.3-2.5-2.6-5.1 3.9 2.6 6.5-1.3 6.5-1.3s1.3-19.3 7.7-32.2c5.2-10.3 12.9-18 24.5-19.3 10.3-2.6 18 5.1 21.9 16.7 3.9 11.6 5.2 33.5 0 46.4Z" />
</svg>
